<svg width="640" height="480" xmlns="http://www.w3.org/2000/svg" xmlns:svg="http://www.w3.org/2000/svg">
 <!-- Created with SVG-edit - https://github.com/SVG-Edit/svgedit-->
 <g class="layer">
  <title>Layer 1</title>
  <path d="m121.65,122.75c-10,13 34,60 44.5,55.5c10.5,-4.5 26.5,-36 27.5,-45.5c1,-9.5 -62,-23 -72,-10z" fill="#f7e06c" id="svg_13" stroke="#000000" stroke-width="0"/>
  <path d="m184.62794,52.78354c-10,13 34,60 44.5,55.5c10.5,-4.5 26.5,-36 27.5,-45.5c1,-9.5 -62,-23 -72,-10z" fill="#f7e06c" id="svg_14" stroke="#000000" stroke-width="0" transform="rotate(29.1198 219.9 78)"/>
  <path d="m271.12794,25.28354c-10,13 34,60 44.5,55.5c10.5,-4.5 26.5,-36 27.5,-45.5c1,-9.5 -62,-23 -72,-10z" fill="#f7e06c" id="svg_15" stroke="#000000" stroke-width="0" transform="rotate(61.4172 306.4 50.5)"/>
  <path d="m361.12794,41.78354c-10,13 34,60 44.5,55.5c10.5,-4.5 26.5,-36 27.5,-45.5c1,-9.5 -62,-23 -72,-10z" fill="#f7e06c" id="svg_16" stroke="#000000" stroke-width="0" transform="rotate(90.9392 396.4 67)"/>
  <path d="m431.05784,100.99097c-10,13 34,60 44.5,55.5c10.5,-4.5 26.5,-36 27.5,-45.5c1,-9.5 -62,-23 -72,-10z" fill="#f7e06c" id="svg_17" stroke="#000000" stroke-width="0" transform="rotate(120.183 466.33 126.207)"/>
  <path d="m460.50381,191.54079c-10,13 34,60 44.5,55.5c10.5,-4.5 26.5,-36 27.5,-45.5c1,-9.5 -62,-23 -72,-10z" fill="#f7e06c" id="svg_18" stroke="#000000" stroke-width="0" transform="rotate(150.227 495.776 216.757)"/>
  <path d="m443.38505,280.52127c-10,13 34,60 44.5,55.5c10.5,-4.5 26.5,-36 27.5,-45.5c1,-9.5 -62,-23 -72,-10z" fill="#f7e06c" id="svg_19" stroke="#000000" stroke-width="0" transform="rotate(179.294 478.657 305.738)"/>
  <path d="m104.12794,213.78354c-10,13 34,60 44.5,55.5c10.5,-4.5 26.5,-36 27.5,-45.5c1,-9.5 -62,-23 -72,-10z" fill="#f7e06c" id="svg_20" stroke="#000000" stroke-width="0" transform="rotate(-30.743 139.4 239)"/>
  <path d="m134.4265,300.82085c-10,13 34,60 44.5,55.5c10.5,-4.5 26.5,-36 27.5,-45.5c1,-9.5 -62,-23 -72,-10z" fill="#f7e06c" id="svg_21" stroke="#000000" stroke-width="0" transform="rotate(-60.47 169.699 326.037)"/>
  <path d="m203.63543,360.92561c-10,13 34,60 44.5,55.5c10.5,-4.5 26.5,-36 27.5,-45.5c1,-9.5 -62,-23 -72,-10z" fill="#f7e06c" id="svg_22" stroke="#000000" stroke-width="0" transform="rotate(-92.9248 238.908 386.142)"/>
  <path d="m292.97964,379.86425c-10,13 34,60 44.5,55.5c10.5,-4.5 26.5,-36 27.5,-45.5c1,-9.5 -62,-23 -72,-10z" fill="#f7e06c" id="svg_23" stroke="#000000" stroke-width="0" transform="rotate(-119.881 328.252 405.081)"/>
  <path d="m381.97964,349.86425c-10,13 34,60 44.5,55.5c10.5,-4.5 26.5,-36 27.5,-45.5c1,-9.5 -62,-23 -72,-10z" fill="#f7e06c" id="svg_24" stroke="#000000" stroke-width="0" transform="rotate(-150.517 417.252 375.081)"/>
  <circle cx="318.9" cy="225.99999" fill="#f7e06c" id="svg_25" r="136.14447" stroke="#000000" stroke-width="0"/>
 </g>
</svg>