<svg width="24" height="24" xmlns="http://www.w3.org/2000/svg" xmlns:svg="http://www.w3.org/2000/svg">
 <g class="layer">
  <title>Layer 1</title>
  <path d="m19,6.734c0,4.672 -4.25,7.079 -4.25,12.266l-5.5,0c0,-5.187 -4.25,-7.594 -4.25,-12.266c0,-4.343 3.498,-6.734 6.996,-6.734c3.502,0 7.004,2.394 7.004,6.734zm-4.75,13.266l-4.5,0c-0.276,0 -0.5,0.224 -0.5,0.5s0.224,0.5 0.5,0.5l4.5,0c0.276,0 0.5,-0.224 0.5,-0.5s-0.224,-0.5 -0.5,-0.5zm0.25,2l-5,0l1.451,1.659c0.19,0.216 0.464,0.341 0.753,0.341l0.593,0c0.288,0 0.563,-0.125 0.752,-0.341l1.451,-1.659z" fill="#f7e06c" id="svg_1"/>
 </g>
</svg>